<svg xmlns="http://www.w3.org/2000/svg" xmlns:xlink="http://www.w3.org/1999/xlink" id="svg" version="1.1" width="160"
    height="125.7588053887356" viewBox="0, 0, 160,125.7588053887356">
    <g id="svgg">
        <path id="path1"
            d="M0.054 39.873 C 0.089 61.714,0.155 79.808,0.200 80.083 C 0.245 80.358,0.337 80.996,0.405 81.500 C 0.472 82.004,0.566 82.642,0.615 82.917 C 0.664 83.192,0.726 83.567,0.753 83.750 C 2.904 98.420,14.904 110.997,33.667 118.246 C 40.276 120.799,50.035 123.269,57.417 124.256 C 57.692 124.293,58.179 124.364,58.500 124.413 C 58.821 124.463,59.421 124.543,59.833 124.590 C 60.246 124.637,60.696 124.709,60.833 124.749 C 61.099 124.827,61.614 124.878,65.167 125.178 C 66.404 125.283,67.642 125.407,67.917 125.455 C 68.192 125.502,86.198 125.572,107.931 125.610 L 147.446 125.679 147.527 106.048 C 147.611 85.788,147.450 46.825,147.277 45.500 C 147.223 45.087,147.144 44.528,147.100 44.257 C 147.057 43.986,146.965 43.386,146.896 42.924 C 146.827 42.461,146.761 42.046,146.751 42.000 C 146.740 41.954,146.678 41.692,146.613 41.417 C 146.548 41.142,146.463 40.767,146.425 40.583 C 143.839 28.221,134.360 17.419,120.000 10.468 C 115.841 8.455,108.286 5.603,105.250 4.900 C 105.158 4.879,103.583 4.474,101.750 4.000 C 99.917 3.526,98.229 3.110,98.000 3.075 C 97.603 3.015,97.265 2.949,96.333 2.750 C 95.390 2.549,94.961 2.470,92.250 2.003 C 89.556 1.539,88.905 1.441,87.167 1.234 C 86.754 1.185,86.042 1.078,85.583 0.997 C 85.125 0.917,84.188 0.802,83.500 0.743 C 82.813 0.685,81.200 0.540,79.917 0.421 C 78.098 0.253,69.033 0.201,38.787 0.185 L -0.010 0.163 0.054 39.873 M147.833 8.914 C 142.106 10.448,140.131 17.652,144.302 21.794 C 150.225 27.675,159.815 21.283,156.818 13.452 C 155.540 10.111,151.320 7.980,147.833 8.914 M152.577 10.485 C 159.807 14.048,155.122 25.403,147.583 22.585 C 141.607 20.352,141.929 11.153,148.021 10.080 C 148.325 10.026,148.613 9.940,148.662 9.889 C 148.931 9.603,151.618 10.012,152.577 10.485 M146.833 16.417 L 146.833 20.833 147.417 20.833 L 148.000 20.833 148.000 19.083 L 148.000 17.333 148.808 17.333 L 149.616 17.333 150.738 19.083 L 151.860 20.833 152.601 20.833 L 153.342 20.833 152.333 19.333 C 151.779 18.508,151.383 17.831,151.454 17.828 C 151.525 17.825,151.444 17.742,151.275 17.644 C 150.999 17.484,151.053 17.415,151.775 17.000 C 153.772 15.852,153.714 13.378,151.664 12.332 C 151.117 12.053,150.681 12.000,148.923 12.000 L 146.833 12.000 146.833 16.417 M151.084 13.262 C 153.063 14.201,151.975 16.167,149.478 16.167 L 148.000 16.167 148.000 14.583 L 148.000 13.000 149.266 13.000 C 150.072 13.000,150.734 13.095,151.084 13.262 M78.833 15.998 C 79.612 16.079,80.775 16.188,81.417 16.241 C 82.860 16.361,83.930 16.476,84.583 16.582 C 84.858 16.626,85.421 16.702,85.833 16.751 C 86.246 16.799,87.258 16.957,88.083 17.100 C 88.908 17.244,89.808 17.396,90.083 17.438 C 90.477 17.497,91.496 17.698,92.500 17.914 C 92.546 17.924,92.883 17.990,93.250 18.062 C 96.408 18.677,103.497 20.702,105.583 21.585 C 105.858 21.702,106.383 21.910,106.750 22.047 C 108.805 22.820,113.730 25.221,115.325 26.229 L 116.234 26.802 115.575 26.966 C 115.213 27.056,113.867 27.371,112.583 27.667 C 111.300 27.963,109.050 28.502,107.583 28.867 C 106.117 29.231,104.747 29.562,104.539 29.602 C 104.331 29.642,103.319 29.930,102.289 30.243 C 89.965 33.985,80.745 38.729,68.842 47.451 C 54.944 57.635,42.620 72.488,34.997 88.239 C 33.018 92.329,32.969 92.444,31.352 96.769 L 30.409 99.287 28.508 97.872 C 24.834 95.137,22.278 92.345,19.700 88.250 C 18.333 86.079,16.561 81.359,16.243 79.044 C 16.203 78.747,16.096 78.184,16.006 77.794 C 15.903 77.345,15.841 65.793,15.837 46.457 L 15.832 15.831 46.624 15.842 C 63.560 15.847,78.054 15.918,78.833 15.998 M129.425 41.392 C 130.216 43.340,131.190 46.591,131.429 48.083 C 131.503 48.542,131.597 49.067,131.638 49.250 C 131.678 49.433,131.743 54.101,131.781 59.623 L 131.850 69.663 99.445 69.666 L 67.040 69.668 68.978 67.779 C 76.644 60.308,86.460 53.532,95.482 49.484 C 96.546 49.007,97.717 48.481,98.083 48.317 C 101.011 47.001,106.808 44.963,110.500 43.949 C 112.487 43.404,113.068 43.262,116.333 42.518 C 118.185 42.097,122.923 41.319,125.123 41.076 C 125.560 41.027,126.404 40.932,127.000 40.864 C 129.125 40.622,129.111 40.619,129.425 41.392 M131.833 98.006 L 131.833 110.679 100.208 110.616 C 82.815 110.581,68.246 110.507,67.833 110.451 C 67.421 110.395,66.596 110.303,66.000 110.246 C 64.322 110.085,63.633 110.008,63.000 109.910 C 62.679 109.860,62.154 109.787,61.833 109.748 C 57.063 109.167,51.737 108.057,47.083 106.673 C 46.442 106.482,45.779 106.293,45.612 106.253 C 44.456 105.978,44.463 106.042,45.333 103.873 C 45.700 102.960,46.000 102.168,46.000 102.113 C 46.000 102.014,47.242 99.064,47.871 97.667 C 49.572 93.893,51.792 89.740,54.042 86.125 L 54.535 85.333 93.184 85.333 L 131.833 85.333 131.833 98.006 "
            stroke="none" fill="#12B0DF" fill-rule="evenodd" />
    </g>
</svg>