<?xml version="1.0" encoding="utf-8"?>
<svg viewBox="0 0 500 500" xmlns="http://www.w3.org/2000/svg">
  <path d="M 234.185 268.012 L 211.741 290.625 C 199.971 242.884 141.323 225.884 106.173 260.023 C 97.59 268.361 91.512 278.967 88.639 290.625 L 66.194 268.012 L 48.171 286.171 L 77.416 315.638 L 73.676 319.407 L 73.676 345.104 L 48.171 345.104 L 48.171 370.801 L 73.676 370.801 L 73.676 372.172 C 74.985 380.55 77.314 388.721 80.647 396.501 L 48.171 429.736 L 66.194 447.895 L 94.25 419.628 C 107.762 437.006 128.286 447.377 150.189 447.895 C 172.093 447.371 192.615 437.002 206.13 419.628 L 234.185 447.895 L 252.209 429.736 L 219.733 396.501 C 223.1 388.55 225.446 380.207 226.704 371.659 L 226.704 369.945 L 252.209 369.945 L 252.209 345.104 L 226.704 345.104 L 226.704 319.407 L 222.962 315.638 L 252.209 286.171 L 234.185 268.012 Z M 150.189 268.012 C 171.319 268.012 188.447 285.27 188.447 306.557 L 111.932 306.557 C 111.932 285.27 129.061 268.012 150.189 268.012 Z M 201.199 370.801 C 198.629 398.043 177.225 419.608 150.189 422.198 C 123.153 419.608 101.749 398.043 99.179 370.801 L 99.179 332.256 L 201.199 332.256 L 201.199 370.801 Z M 452.165 201.198 L 452.165 222.783 L 277.714 334.312 L 277.714 303.987 L 422.24 211.991 L 201.199 70.996 L 201.199 233.063 C 193.43 227.564 184.812 223.397 175.694 220.728 L 175.694 47.526 L 195.078 36.733 L 452.165 201.198 Z" style="paint-order: stroke; stroke-width: 10px; stroke: rgb(9, 11, 6);"/>
</svg>