<?xml version="1.0" encoding="utf-8"?>
<svg viewBox="0 0 500 500" xmlns="http://www.w3.org/2000/svg">
  <path d="M 468.484 365.431 C 455.181 370.701 440.216 364.746 433.612 351.555 L 370.122 259.608 L 360.921 246.754 L 287.255 351.671 C 281.049 364.304 266.851 370.146 254.094 365.315 L 349.015 231.953 L 260.718 111.482 C 273.805 106.544 288.406 111.903 295.683 124.317 L 361.492 217.402 L 427.667 124.703 C 433.925 112.287 448.072 106.752 460.571 111.829 L 426.305 159.45 L 379.893 222.721 C 374.43 227.825 374.43 236.773 379.893 241.878 L 468.3 365.451 L 468.484 365.431 Z M 26.858 230.295 L 34.587 190.305 C 55.823 111.231 142.389 78.334 201.941 127.285 C 236.813 155.982 245.518 196.607 243.806 242.398 L 47.358 242.398 C 44.175 324.169 100.523 373.545 172.57 348.318 C 196.294 339.375 214.143 318.553 220.086 292.891 C 223.895 280.055 230.17 277.858 241.691 281.56 C 237.801 313.279 220.243 341.383 194.046 357.819 C 150.234 382.916 95.98 375.66 59.597 339.838 C 42.059 319.167 31.46 293.055 29.416 265.486 C 29.416 260.957 27.944 256.718 26.95 252.651 C 26.861 245.206 26.817 237.76 26.821 230.315 L 26.858 230.295 Z M 47.598 224.783 L 225.256 224.783 C 224.152 165.502 188.433 123.45 140.789 123.065 C 87.752 122.294 49.806 163.421 47.469 224.513 L 47.598 224.783 Z" style="stroke: rgb(255, 255, 255); stroke-width: 6px;"/>
</svg>