<?xml version="1.0" standalone="no"?>
<!DOCTYPE svg PUBLIC "-//W3C//DTD SVG 20010904//EN"
 "http://www.w3.org/TR/2001/REC-SVG-20010904/DTD/svg10.dtd">
<svg version="1.0" xmlns="http://www.w3.org/2000/svg"
 width="200.000000pt" height="200.000000pt" viewBox="0 0 200.000000 200.000000"
 preserveAspectRatio="xMidYMid meet">

<g transform="translate(0.000000,200.000000) scale(0.100000,-0.100000)"
fill="#000000" stroke="none">
<path d="M0 1000 l0 -1000 1000 0 1000 0 0 1000 0 1000 -1000 0 -1000 0 0
-1000z m1150 152 c0 -13 -8 -17 -32 -17 -29 0 -33 -4 -36 -27 -3 -27 -1 -28
37 -28 30 0 41 -4 41 -15 0 -11 -11 -15 -40 -15 l-40 0 0 -105 c0 -98 -1 -105
-20 -105 -19 0 -20 7 -20 105 0 87 -3 105 -15 105 -8 0 -15 7 -15 15 0 8 7 15
15 15 8 0 15 9 15 19 0 11 4 31 10 45 8 23 15 26 55 26 36 0 45 -3 45 -18z
m98 -160 c2 -131 0 -152 -13 -152 -13 0 -15 23 -15 156 0 120 3 155 13 152 9
-4 13 -46 15 -156z m-968 83 c17 -9 30 -20 30 -25 0 -16 -20 -22 -35 -10 -22
18 -60 8 -63 -17 -2 -16 5 -26 28 -38 70 -36 91 -94 50 -135 -37 -37 -133 -17
-117 24 6 15 8 15 31 1 27 -18 61 -13 70 10 9 24 -2 39 -50 68 -43 26 -45 29
-42 69 2 34 8 45 28 55 32 16 35 16 70 -2z m299 -13 c13 -9 30 -31 37 -49 26
-61 25 -62 -96 -65 l-110 -3 18 -35 c29 -58 99 -66 146 -15 30 32 56 19 32
-17 -45 -69 -173 -62 -211 12 -63 122 69 246 184 172z m295 14 c60 -25 76 -58
76 -152 0 -68 -3 -84 -15 -84 -8 0 -15 7 -15 16 0 13 -5 12 -26 -5 -18 -14
-41 -21 -72 -21 -38 0 -50 5 -83 39 -33 32 -39 45 -39 80 0 80 49 133 128 140
7 0 27 -5 46 -13z m506 -77 c0 -117 27 -155 92 -130 39 15 52 47 52 128 1 63
3 73 19 73 15 0 17 -12 17 -115 0 -93 -3 -115 -14 -115 -8 0 -16 5 -18 11 -3
8 -14 7 -35 -5 -47 -24 -80 -20 -114 13 -28 29 -29 32 -29 130 0 85 2 99 15
95 12 -5 15 -24 15 -85z m321 34 l23 -36 31 37 c19 23 39 37 48 35 14 -3 11
-12 -18 -53 -19 -27 -32 -54 -28 -60 4 -6 18 -29 33 -51 43 -64 43 -65 21 -65
-13 0 -32 17 -52 46 l-31 46 -30 -46 c-18 -28 -38 -46 -49 -46 -25 0 -25 2 16
63 19 28 35 57 35 63 0 6 -13 30 -30 52 -35 49 -36 52 -11 52 11 0 29 -15 42
-37z"/>
<path d="M445 1025 c-14 -13 -25 -29 -25 -35 0 -13 157 -14 165 0 3 5 -5 21
-19 35 -34 34 -88 34 -121 0z"/>
<path d="M773 1035 c-29 -20 -46 -75 -34 -107 13 -35 58 -68 93 -68 44 0 88
48 88 95 0 73 -88 121 -147 80z"/>
</g>
</svg>
